<svg width="80" height="80" viewBox="0 0 80 80" fill="none" xmlns="http://www.w3.org/2000/svg">
<path d="M68.3333 76.6615H1.66667C1.22464 76.6615 0.800716 76.4859 0.488155 76.1733C0.175595 75.8607 0 75.4368 0 74.9948C0 74.5528 0.175595 74.1288 0.488155 73.8163C0.800716 73.5037 1.22464 73.3281 1.66667 73.3281H68.3333C72.9267 73.3281 76.6667 69.5881 76.6667 64.9948C76.6667 60.4015 72.9267 56.6615 68.3333 56.6615H1.66667C1.22464 56.6615 0.800716 56.4859 0.488155 56.1733C0.175595 55.8607 0 55.4368 0 54.9948C0 54.5528 0.175595 54.1288 0.488155 53.8163C0.800716 53.5037 1.22464 53.3281 1.66667 53.3281H68.3333C74.7667 53.3281 80 58.5615 80 64.9948C80 71.4281 74.7667 76.6615 68.3333 76.6615Z" fill="white"/>
<path d="M68.3327 66.6615H8.33268C7.89065 66.6615 7.46673 66.4859 7.15417 66.1733C6.84161 65.8607 6.66602 65.4368 6.66602 64.9948C6.66602 64.5528 6.84161 64.1288 7.15417 63.8163C7.46673 63.5037 7.89065 63.3281 8.33268 63.3281H68.3327C68.7747 63.3281 69.1986 63.5037 69.5112 63.8163C69.8238 64.1288 69.9994 64.5528 69.9994 64.9948C69.9994 65.4368 69.8238 65.8607 69.5112 66.1733C69.1986 66.4859 68.7747 66.6615 68.3327 66.6615Z" fill="white"/>
<path d="M8.33268 76.6615C7.89065 76.6615 7.46673 76.4859 7.15417 76.1733C6.84161 75.8607 6.66602 75.4368 6.66602 74.9948V54.9948C6.66602 54.5528 6.84161 54.1288 7.15417 53.8163C7.46673 53.5037 7.89065 53.3281 8.33268 53.3281C8.77471 53.3281 9.19863 53.5037 9.51119 53.8163C9.82375 54.1288 9.99935 54.5528 9.99935 54.9948V74.9948C9.99935 75.4368 9.82375 75.8607 9.51119 76.1733C9.19863 76.4859 8.77471 76.6615 8.33268 76.6615ZM41.666 33.3281C33.396 33.3281 26.666 26.5981 26.666 18.3281C26.666 10.0581 33.396 3.32812 41.666 3.32812C49.936 3.32812 56.666 10.0581 56.666 18.3281C56.666 26.5981 49.936 33.3281 41.666 33.3281ZM41.666 6.66146C35.2327 6.66146 29.9993 11.8948 29.9993 18.3281C29.9993 24.7615 35.2327 29.9948 41.666 29.9948C48.0993 29.9948 53.3327 24.7615 53.3327 18.3281C53.3327 11.8948 48.0993 6.66146 41.666 6.66146Z" fill="white"/>
<path d="M38.3327 56.6562H31.666C28.9093 56.6562 26.666 54.4129 26.666 51.6562V18.3229C26.666 17.8809 26.8416 17.457 27.1542 17.1444C27.4667 16.8318 27.8907 16.6562 28.3327 16.6562C28.7747 16.6562 29.1986 16.8318 29.5112 17.1444C29.8238 17.457 29.9993 17.8809 29.9993 18.3229V51.6562C29.9993 52.0983 30.1749 52.5222 30.4875 52.8348C30.8001 53.1473 31.224 53.3229 31.666 53.3229H38.3327C46.6027 53.3229 53.3327 46.5929 53.3327 38.3229V18.3229C53.3327 17.8809 53.5083 17.457 53.8208 17.1444C54.1334 16.8318 54.5573 16.6562 54.9993 16.6562C55.4414 16.6562 55.8653 16.8318 56.1779 17.1444C56.4904 17.457 56.666 17.8809 56.666 18.3229V38.3229C56.666 48.4329 48.4427 56.6562 38.3327 56.6562Z" fill="white"/>
<path d="M31.6675 56.6616C31.2922 56.6616 30.9279 56.5349 30.6336 56.3021C30.3392 56.0692 30.1321 55.7439 30.0457 55.3786C29.9593 55.0134 29.9987 54.6297 30.1576 54.2897C30.3164 53.9496 30.5853 53.6731 30.9208 53.505C33.6556 52.1492 35.9557 50.0543 37.5606 47.4579C39.1655 44.8614 40.0108 41.8673 40.0008 38.815V31.6617C40.0008 31.2196 40.1764 30.7957 40.489 30.4831C40.8016 30.1706 41.2255 29.995 41.6675 29.995C42.1095 29.995 42.5335 30.1706 42.846 30.4831C43.1586 30.7957 43.3342 31.2196 43.3342 31.6617V38.815C43.3468 42.4864 42.3305 46.088 40.4004 49.2112C38.4702 52.3343 35.7036 54.8542 32.4142 56.485C32.1825 56.6014 31.9268 56.6619 31.6675 56.6616ZM41.6675 19.995C41.2957 19.9949 40.9347 19.8705 40.6417 19.6416C40.3488 19.4127 40.1408 19.0924 40.0508 18.7317C39.5994 16.8982 38.7329 15.193 37.5181 13.7476C36.3032 12.3022 34.7726 11.1551 33.0442 10.395L24.3242 6.51832C23.9202 6.33886 23.604 6.00625 23.4452 5.59367C23.2864 5.18109 23.298 4.72233 23.4775 4.31832C23.657 3.91431 23.9896 3.59813 24.4022 3.43935C24.8147 3.28057 25.2735 3.29219 25.6775 3.47165L34.3975 7.34832C37.4567 8.69828 40.004 10.991 41.6675 13.8917C43.3303 10.9904 45.8778 8.69749 48.9375 7.34832L57.6575 3.47165C57.8576 3.38279 58.0732 3.3342 58.292 3.32866C58.5108 3.32312 58.7286 3.36073 58.9329 3.43935C59.1372 3.51797 59.324 3.63606 59.4826 3.78687C59.6413 3.93769 59.7687 4.11827 59.8575 4.31832C59.9464 4.51837 59.995 4.73396 60.0005 4.95278C60.006 5.17161 59.9684 5.38938 59.8898 5.59367C59.8112 5.79796 59.6931 5.98476 59.5423 6.14341C59.3915 6.30206 59.2109 6.42946 59.0108 6.51832L50.2908 10.395C48.563 11.156 47.0329 12.3033 45.8181 13.7486C44.6034 15.1939 43.7365 16.8987 43.2842 18.7317C43.1942 19.0924 42.9862 19.4127 42.6933 19.6416C42.4003 19.8705 42.0393 19.9949 41.6675 19.995Z" fill="white"/>
</svg>
