<svg width="80" height="80" viewBox="0 0 80 80" fill="none" xmlns="http://www.w3.org/2000/svg">
<g clip-path="url(#clip0_362_30829)">
<path d="M13.3333 26.6667C5.98 26.6667 0 20.6867 0 13.3333C0 5.98 5.98 0 13.3333 0C20.6867 0 26.6667 5.98 26.6667 13.3333C26.6667 20.6867 20.6867 26.6667 13.3333 26.6667ZM13.3333 3.33333C7.82 3.33333 3.33333 7.82 3.33333 13.3333C3.33333 18.8467 7.82 23.3333 13.3333 23.3333C18.8467 23.3333 23.3333 18.8467 23.3333 13.3333C23.3333 7.82 18.8467 3.33333 13.3333 3.33333Z" fill="white"/>
<path d="M20 39.8903C19.6394 39.8903 19.2885 39.7733 19 39.557L13.3333 35.307L7.66667 39.557C7.41905 39.7427 7.12461 39.8558 6.81634 39.8836C6.50807 39.9114 6.19815 39.8528 5.92131 39.7144C5.64447 39.5759 5.41164 39.3632 5.24892 39.0999C5.08619 38.8366 5 38.5332 5 38.2236V22.947C5 22.505 5.17559 22.081 5.48816 21.7685C5.80072 21.4559 6.22464 21.2803 6.66667 21.2803C7.10869 21.2803 7.53262 21.4559 7.84518 21.7685C8.15774 22.081 8.33333 22.505 8.33333 22.947V34.8903L12.3333 31.8903C12.622 31.6745 12.9729 31.5578 13.3333 31.5578C13.6938 31.5578 14.0446 31.6745 14.3333 31.8903L18.3333 34.8903V22.947C18.3333 22.505 18.5089 22.081 18.8215 21.7685C19.1341 21.4559 19.558 21.2803 20 21.2803C20.442 21.2803 20.866 21.4559 21.1785 21.7685C21.4911 22.081 21.6667 22.505 21.6667 22.947V38.2236C21.6667 38.6657 21.4911 39.0896 21.1785 39.4022C20.866 39.7147 20.442 39.8903 20 39.8903ZM71.6667 3.48698C71.4791 3.48691 71.2926 3.45882 71.1133 3.40365H35C34.558 3.40365 34.1341 3.22805 33.8215 2.91549C33.5089 2.60293 33.3333 2.17901 33.3333 1.73698C33.3333 1.29495 33.5089 0.871029 33.8215 0.558468C34.1341 0.245907 34.558 0.0703125 35 0.0703125H71.6667C72.5867 0.0703125 73.3333 0.816979 73.3333 1.73698C73.3333 2.65698 72.5867 3.48698 71.6667 3.48698ZM8.33333 63.4036C7.89131 63.4036 7.46738 63.2281 7.15482 62.9155C6.84226 62.6029 6.66667 62.179 6.66667 61.737V48.3336C6.66667 47.8916 6.84226 47.4677 7.15482 47.1551C7.46738 46.8426 7.89131 46.667 8.33333 46.667C8.77536 46.667 9.19928 46.8426 9.51184 47.1551C9.82441 47.4677 10 47.8916 10 48.3336V61.737C10 62.179 9.82441 62.6029 9.51184 62.9155C9.19928 63.2281 8.77536 63.4036 8.33333 63.4036Z" fill="white"/>
<path d="M78.3333 16.737H61.6667C61.2246 16.737 60.8007 16.5614 60.4882 16.2488C60.1756 15.9363 60 15.5123 60 15.0703V10.0703C60 4.55698 64.4867 0.0703125 70 0.0703125C75.5133 0.0703125 80 4.55698 80 10.0703V15.0703C80 15.5123 79.8244 15.9363 79.5118 16.2488C79.1993 16.5614 78.7754 16.737 78.3333 16.737ZM63.3333 13.4036H76.6667V10.0703C76.6667 6.39365 73.6767 3.40365 70 3.40365C66.3233 3.40365 63.3333 6.39365 63.3333 10.0703V13.4036Z" fill="white"/>
<path d="M53.3333 79.9329H8.33333C6.12401 79.9303 4.00593 79.0515 2.4437 77.4892C0.88147 75.927 0.00264643 73.8089 0 71.5996L0 61.7363C0 61.2942 0.175595 60.8703 0.488155 60.5577C0.800716 60.2452 1.22464 60.0696 1.66667 60.0696H45C45.442 60.0696 45.866 60.2452 46.1785 60.5577C46.4911 60.8703 46.6667 61.2942 46.6667 61.7363V69.9329C46.6667 73.6096 49.6567 76.5996 53.3333 76.5996C57.01 76.5996 60 73.6096 60 69.9329V15.0729C60 14.6309 60.1756 14.207 60.4882 13.8944C60.8007 13.5818 61.2246 13.4063 61.6667 13.4062C62.1087 13.4062 62.5326 13.5818 62.8452 13.8944C63.1577 14.207 63.3333 14.6309 63.3333 15.0729V69.9363C63.3298 72.587 62.275 75.1282 60.4003 77.0022C58.5256 78.8763 55.9841 79.9303 53.3333 79.9329ZM3.33333 63.4063V71.6029C3.33333 74.3596 5.57667 76.6029 8.33333 76.6029H45.8867C44.2408 74.7727 43.3311 72.3977 43.3333 69.9363V63.4063H3.33333Z" fill="white"/>
</g>
<defs>
<clipPath id="clip0_362_30829">
<rect width="80" height="80" fill="white"/>
</clipPath>
</defs>
</svg>
